<?xml version="1.0" encoding="UTF-8" standalone="no"?>
<svg
   viewBox="0 0 331776 262144"
   version="1.1"
   id="svg1"
   sodipodi:docname="umbrella-solid.svg"
   inkscape:version="1.4 (86a8ad7, 2024-10-11)"
   inkscape:export-filename="..\Desktop\MauiAppLogin\umbrella_i.png"
   inkscape:export-xdpi="96"
   inkscape:export-ydpi="96"
   width="331776"
   height="262144"
   xmlns:inkscape="http://www.inkscape.org/namespaces/inkscape"
   xmlns:sodipodi="http://sodipodi.sourceforge.net/DTD/sodipodi-0.dtd"
   xmlns:xlink="http://www.w3.org/1999/xlink"
   xmlns="http://www.w3.org/2000/svg"
   xmlns:svg="http://www.w3.org/2000/svg">
  <defs
     id="defs1">
    <linearGradient
       id="linearGradient1"
       inkscape:collect="always">
      <stop
         style="stop-color:#ff0000;stop-opacity:1;"
         offset="0"
         id="stop1" />
      <stop
         style="stop-color:#ff8000;stop-opacity:1;"
         offset="0.15862069"
         id="stop2" />
      <stop
         style="stop-color:#ffff00;stop-opacity:1;"
         offset="0.32586208"
         id="stop3" />
      <stop
         style="stop-color:#00ff00;stop-opacity:1;"
         offset="0.49827588"
         id="stop4" />
      <stop
         style="stop-color:#00ffff;stop-opacity:1;"
         offset="0.6603449"
         id="stop5" />
      <stop
         style="stop-color:#0000ff;stop-opacity:1;"
         offset="0.83965516"
         id="stop6" />
      <stop
         style="stop-color:#ff00ff;stop-opacity:1;"
         offset="1"
         id="stop7" />
    </linearGradient>
    <linearGradient
       inkscape:collect="always"
       xlink:href="#linearGradient1"
       id="linearGradient2"
       x1="287.99982"
       y1="-30.093931"
       x2="287.99982"
       y2="541.99396"
       gradientUnits="userSpaceOnUse" />
  </defs>
  <sodipodi:namedview
     id="namedview1"
     pagecolor="#ffffff"
     bordercolor="#000000"
     borderopacity="0.25"
     inkscape:showpageshadow="2"
     inkscape:pageopacity="0.0"
     inkscape:pagecheckerboard="0"
     inkscape:deskcolor="#d1d1d1"
     inkscape:zoom="1.5097656"
     inkscape:cx="287.79301"
     inkscape:cy="256"
     inkscape:window-width="1920"
     inkscape:window-height="991"
     inkscape:window-x="-9"
     inkscape:window-y="-9"
     inkscape:window-maximized="1"
     inkscape:current-layer="svg1">
    <inkscape:page
       x="0"
       y="0"
       width="331776"
       height="262144"
       id="page2"
       margin="0"
       bleed="0" />
  </sodipodi:namedview>
  <!--!Font Awesome Free 6.7.2 by @fontawesome - https://fontawesome.com License - https://fontawesome.com/license/free Copyright 2025 Fonticons, Inc.-->
  <path
     d="m 288,0 c 17.7,0 32,14.3 32,32 v 17.7 c 131.8,13.7 237.7,111.3 253.9,236.2 2,15.6 -17.3,24.4 -27.8,12.7 C 532.1,283 504.8,272 480,272 c -38.7,0 -71,27.5 -78.4,64.1 -1.7,8.7 -8.7,15.9 -17.6,15.9 -8.9,0 -15.8,-7.2 -17.6,-15.9 C 359,299.5 326.7,272 288,272 c -38.7,0 -71,27.5 -78.4,64.1 -1.7,8.7 -8.7,15.9 -17.6,15.9 -8.9,0 -15.8,-7.2 -17.6,-15.9 C 167,299.5 134.7,272 96,272 71.2,272 43.9,283 29.9,298.7 19.4,310.4 0.1,301.5 2.1,285.9 18.3,161 124.2,63.4 256,49.7 V 32 C 256,14.3 270.3,0 288,0 Z m 0,304 c 12.3,0 23.5,4.6 32,12.2 v 114.3 c 0,45 -36.5,81.4 -81.4,81.4 -30.8,0 -59,-17.4 -72.8,-45 l -2.3,-4.7 c -7.9,-15.8 -1.5,-35 14.3,-42.9 15.8,-7.9 35,-1.5 42.9,14.3 l 2.3,4.7 c 3,5.9 9,9.6 15.6,9.6 9.6,0 17.4,-7.8 17.4,-17.4 V 316.2 c 8.5,-7.6 19.7,-12.2 32,-12.2 z"
     id="path1"
     style="fill:url(#linearGradient2);fill-opacity:1;stroke:#000000;stroke-width:3;stroke-dasharray:none;stroke-opacity:1" />
  <text
     xml:space="preserve"
     style="font-style:normal;font-variant:normal;font-weight:normal;font-stretch:normal;font-size:72.6815px;font-family:sans-serif;-inkscape-font-specification:'sans-serif, Normal';font-variant-ligatures:normal;font-variant-caps:normal;font-variant-numeric:normal;font-variant-east-asian:normal;text-align:start;writing-mode:lr-tb;direction:ltr;text-anchor:start;fill:#000000;fill-opacity:0;stroke:#000000;stroke-width:1;stroke-dasharray:none;stroke-opacity:1"
     x="50.356033"
     y="242.6888"
     id="text7"><tspan
       sodipodi:role="line"
       id="tspan7"
       x="50.356033"
       y="242.6888"
       style="fill:#000000;fill-opacity:0;stroke-width:1;stroke-dasharray:none">App Umbrella</tspan></text>
</svg>
